<mxfile host="app.diagrams.net" modified="2024-03-08T12:57:29.869Z" agent="Mozilla/5.0 (X11; Ubuntu; Linux x86_64; rv:123.0) Gecko/20100101 Firefox/123.0" etag="Yf1z0TUH5O9jielrtb5i" version="24.0.2" type="google">
  <diagram name="Page-1" id="92Bl0VrtYfAtHgHkWWcL">
    <mxGraphModel grid="1" page="1" gridSize="10" guides="1" tooltips="1" connect="1" arrows="1" fold="1" pageScale="1" pageWidth="600" pageHeight="270" math="0" shadow="0">
      <root>
        <mxCell id="0" />
        <mxCell id="1" parent="0" />
        <mxCell id="HzJhL3RGOc5jAGBWGsxX-36" value="" style="endArrow=none;html=1;rounded=0;entryX=0.75;entryY=0;entryDx=0;entryDy=0;labelBackgroundColor=none;" edge="1" parent="1" target="HzJhL3RGOc5jAGBWGsxX-8">
          <mxGeometry width="50" height="50" relative="1" as="geometry">
            <mxPoint x="280" y="206" as="sourcePoint" />
            <mxPoint x="360" y="306" as="targetPoint" />
          </mxGeometry>
        </mxCell>
        <mxCell id="HzJhL3RGOc5jAGBWGsxX-1" value="" style="verticalLabelPosition=bottom;html=1;verticalAlign=top;align=center;strokeColor=none;fillColor=#505050;shape=mxgraph.azure.git_repository;" vertex="1" parent="1">
          <mxGeometry x="35.22" y="186" width="50" height="50" as="geometry" />
        </mxCell>
        <mxCell id="HzJhL3RGOc5jAGBWGsxX-2" value="" style="verticalLabelPosition=bottom;html=1;verticalAlign=top;align=center;strokeColor=none;fillColor=#505050;shape=mxgraph.azure.git_repository;" vertex="1" parent="1">
          <mxGeometry x="35.21000000000001" y="10" width="50" height="50" as="geometry" />
        </mxCell>
        <mxCell id="HzJhL3RGOc5jAGBWGsxX-3" value="" style="verticalLabelPosition=bottom;html=1;verticalAlign=top;align=center;strokeColor=none;fillColor=#505050;shape=mxgraph.azure.git_repository;" vertex="1" parent="1">
          <mxGeometry x="282.36999999999995" y="10" width="50" height="50" as="geometry" />
        </mxCell>
        <mxCell id="HzJhL3RGOc5jAGBWGsxX-4" value="" style="verticalLabelPosition=bottom;html=1;verticalAlign=top;align=center;strokeColor=none;fillColor=#505050;shape=mxgraph.azure.git_repository;" vertex="1" parent="1">
          <mxGeometry x="535.21" y="10" width="50" height="50" as="geometry" />
        </mxCell>
        <UserObject label="&lt;font color=&quot;#0000cc&quot;&gt;&lt;u&gt;UserFrontend&lt;/u&gt;&lt;/font&gt;" link="https://github.com/ries-lab/DECODE_Cloud_UserFrontend" id="HzJhL3RGOc5jAGBWGsxX-7">
          <mxCell style="text;html=1;align=center;verticalAlign=middle;whiteSpace=wrap;rounded=0;" vertex="1" parent="1">
            <mxGeometry x="19.99999999999997" y="230" width="80.43" height="30" as="geometry" />
          </mxCell>
        </UserObject>
        <UserObject label="&lt;font color=&quot;#0000cc&quot;&gt;&lt;u&gt;UserAPI&lt;/u&gt;&lt;/font&gt;" link="https://github.com/ries-lab/DECODE_Cloud_UserAPI" id="HzJhL3RGOc5jAGBWGsxX-8">
          <mxCell style="text;html=1;align=center;verticalAlign=middle;whiteSpace=wrap;rounded=0;" vertex="1" parent="1">
            <mxGeometry x="19.99999999999997" y="54" width="80.43" height="30" as="geometry" />
          </mxCell>
        </UserObject>
        <UserObject label="&lt;font color=&quot;#0000cc&quot;&gt;&lt;u&gt;WorkerAPI&lt;/u&gt;&lt;/font&gt;" link="https://github.com/ries-lab/DECODE_Cloud_WorkerAPI" id="HzJhL3RGOc5jAGBWGsxX-9">
          <mxCell style="text;html=1;align=center;verticalAlign=middle;whiteSpace=wrap;rounded=0;" vertex="1" parent="1">
            <mxGeometry x="267.1499999999999" y="54" width="80.43" height="30" as="geometry" />
          </mxCell>
        </UserObject>
        <UserObject label="&lt;font color=&quot;#0000cc&quot;&gt;&lt;u&gt;AWS_Infrastructure&lt;br&gt;&lt;/u&gt;&lt;/font&gt;" link="https://github.com/ries-lab/DECODE_AWS_Infrastructure" id="HzJhL3RGOc5jAGBWGsxX-10">
          <mxCell style="text;html=1;align=center;verticalAlign=middle;whiteSpace=wrap;rounded=0;" vertex="1" parent="1">
            <mxGeometry x="252.57999999999998" y="230" width="110.43" height="30" as="geometry" />
          </mxCell>
        </UserObject>
        <UserObject label="&lt;font color=&quot;#0000cc&quot;&gt;&lt;u&gt;JobFetcher&lt;/u&gt;&lt;/font&gt;" link="https://github.com/ries-lab/DECODE_Cloud_JobFetcher" id="HzJhL3RGOc5jAGBWGsxX-11">
          <mxCell style="text;html=1;align=center;verticalAlign=middle;whiteSpace=wrap;rounded=0;" vertex="1" parent="1">
            <mxGeometry x="520" y="54" width="80.43" height="30" as="geometry" />
          </mxCell>
        </UserObject>
        <mxCell id="HzJhL3RGOc5jAGBWGsxX-12" value="Applications" style="shape=image;html=1;verticalAlign=top;verticalLabelPosition=bottom;labelBackgroundColor=#ffffff;imageAspect=0;aspect=fixed;image=https://cdn0.iconfinder.com/data/icons/social-media-2104/24/social_media_social_media_logo_docker-128.png;spacing=-5;" vertex="1" parent="1">
          <mxGeometry x="540.2" y="168.13" width="40" height="40" as="geometry" />
        </mxCell>
        <UserObject label="&lt;div align=&quot;center&quot;&gt;&lt;font color=&quot;#0000cc&quot;&gt;&lt;u&gt;DECODE&lt;/u&gt;&lt;/font&gt;&lt;/div&gt;" link="https://github.com/ries-lab/DECODE_Internal/tree/dockerfile_stable" id="HzJhL3RGOc5jAGBWGsxX-13">
          <mxCell style="text;html=1;align=center;verticalAlign=middle;whiteSpace=wrap;rounded=0;" vertex="1" parent="1">
            <mxGeometry x="532.37" y="214.13" width="55.67" height="30" as="geometry" />
          </mxCell>
        </UserObject>
        <UserObject label="&lt;div&gt;&lt;font color=&quot;#0000cc&quot;&gt;&lt;u&gt;Comet&lt;/u&gt;&lt;/font&gt;&lt;/div&gt;" link="https://github.com/nolan1999/Comet/tree/docker" id="HzJhL3RGOc5jAGBWGsxX-14">
          <mxCell style="text;html=1;align=center;verticalAlign=middle;whiteSpace=wrap;rounded=0;" vertex="1" parent="1">
            <mxGeometry x="535.1999999999999" y="228.13" width="50" height="30" as="geometry" />
          </mxCell>
        </UserObject>
        <mxCell id="HzJhL3RGOc5jAGBWGsxX-15" value="&lt;font color=&quot;#0000cc&quot;&gt;...&lt;/font&gt;" style="text;html=1;align=center;verticalAlign=middle;whiteSpace=wrap;rounded=0;" vertex="1" parent="1">
          <mxGeometry x="550.09" y="244.13" width="20.21" height="15.87" as="geometry" />
        </mxCell>
        <mxCell id="HzJhL3RGOc5jAGBWGsxX-16" value="" style="endArrow=none;html=1;rounded=0;entryX=0.5;entryY=1;entryDx=0;entryDy=0;" edge="1" parent="1" target="HzJhL3RGOc5jAGBWGsxX-8">
          <mxGeometry width="50" height="50" relative="1" as="geometry">
            <mxPoint x="60" y="176" as="sourcePoint" />
            <mxPoint x="370" y="306" as="targetPoint" />
          </mxGeometry>
        </mxCell>
        <mxCell id="HzJhL3RGOc5jAGBWGsxX-18" value="&lt;div&gt;CORS&lt;/div&gt;&lt;div&gt;settings&lt;/div&gt;" style="text;html=1;align=left;verticalAlign=middle;whiteSpace=wrap;rounded=0;" vertex="1" parent="1">
          <mxGeometry x="10" y="96" width="40" height="30" as="geometry" />
        </mxCell>
        <mxCell id="HzJhL3RGOc5jAGBWGsxX-20" value="" style="endArrow=none;html=1;rounded=0;entryX=1;entryY=0.867;entryDx=0;entryDy=0;entryPerimeter=0;" edge="1" parent="1" target="HzJhL3RGOc5jAGBWGsxX-24">
          <mxGeometry width="50" height="50" relative="1" as="geometry">
            <mxPoint x="90" y="36" as="sourcePoint" />
            <mxPoint x="330" y="36" as="targetPoint" />
          </mxGeometry>
        </mxCell>
        <mxCell id="HzJhL3RGOc5jAGBWGsxX-22" value="Shared internal API key" style="text;html=1;align=center;verticalAlign=middle;resizable=0;points=[];autosize=1;strokeColor=none;fillColor=none;" vertex="1" parent="1">
          <mxGeometry x="100" y="30" width="150" height="30" as="geometry" />
        </mxCell>
        <mxCell id="HzJhL3RGOc5jAGBWGsxX-23" value="&lt;div&gt;URL&lt;/div&gt;" style="text;html=1;align=center;verticalAlign=middle;resizable=0;points=[];autosize=1;strokeColor=none;fillColor=none;" vertex="1" parent="1">
          <mxGeometry x="85.21000000000001" y="10" width="50" height="30" as="geometry" />
        </mxCell>
        <mxCell id="HzJhL3RGOc5jAGBWGsxX-24" value="URL" style="text;html=1;align=center;verticalAlign=middle;resizable=0;points=[];autosize=1;strokeColor=none;fillColor=none;" vertex="1" parent="1">
          <mxGeometry x="225" y="10" width="50" height="30" as="geometry" />
        </mxCell>
        <mxCell id="HzJhL3RGOc5jAGBWGsxX-26" value="" style="endArrow=none;html=1;rounded=0;entryX=1;entryY=0.867;entryDx=0;entryDy=0;entryPerimeter=0;" edge="1" parent="1">
          <mxGeometry width="50" height="50" relative="1" as="geometry">
            <mxPoint x="340.2" y="34.5" as="sourcePoint" />
            <mxPoint x="525.2" y="34.5" as="targetPoint" />
          </mxGeometry>
        </mxCell>
        <mxCell id="HzJhL3RGOc5jAGBWGsxX-27" value="URL" style="text;html=1;align=center;verticalAlign=middle;resizable=0;points=[];autosize=1;strokeColor=none;fillColor=none;" vertex="1" parent="1">
          <mxGeometry x="480" y="10" width="50" height="30" as="geometry" />
        </mxCell>
        <mxCell id="HzJhL3RGOc5jAGBWGsxX-28" value="&lt;div&gt;Cognito&lt;/div&gt;&lt;div&gt;&quot;worker&quot;&lt;/div&gt;&lt;div&gt;users&lt;br&gt;&lt;/div&gt;" style="text;html=1;align=center;verticalAlign=middle;whiteSpace=wrap;rounded=0;" vertex="1" parent="1">
          <mxGeometry x="347.58" y="126" width="60" height="30" as="geometry" />
        </mxCell>
        <mxCell id="HzJhL3RGOc5jAGBWGsxX-29" value="" style="endArrow=none;html=1;rounded=0;entryX=0.5;entryY=1;entryDx=0;entryDy=0;" edge="1" parent="1">
          <mxGeometry width="50" height="50" relative="1" as="geometry">
            <mxPoint x="307" y="176" as="sourcePoint" />
            <mxPoint x="306.87" y="84" as="targetPoint" />
          </mxGeometry>
        </mxCell>
        <mxCell id="HzJhL3RGOc5jAGBWGsxX-31" value="" style="endArrow=none;html=1;rounded=0;entryX=0.25;entryY=0;entryDx=0;entryDy=0;" edge="1" parent="1" target="HzJhL3RGOc5jAGBWGsxX-11">
          <mxGeometry width="50" height="50" relative="1" as="geometry">
            <mxPoint x="340" y="206" as="sourcePoint" />
            <mxPoint x="560.2149999999999" y="80" as="targetPoint" />
          </mxGeometry>
        </mxCell>
        <mxCell id="HzJhL3RGOc5jAGBWGsxX-32" value="" style="endArrow=none;html=1;rounded=0;" edge="1" parent="1">
          <mxGeometry width="50" height="50" relative="1" as="geometry">
            <mxPoint x="94" y="212" as="sourcePoint" />
            <mxPoint x="274" y="212" as="targetPoint" />
          </mxGeometry>
        </mxCell>
        <mxCell id="HzJhL3RGOc5jAGBWGsxX-33" value="&lt;div&gt;&lt;span style=&quot;&quot;&gt;Cognito&lt;/span&gt; &quot;user&quot;&lt;/div&gt;&lt;div&gt;users&lt;br&gt;&lt;/div&gt;" style="text;html=1;align=center;verticalAlign=middle;whiteSpace=wrap;rounded=0;labelBackgroundColor=default;" vertex="1" parent="1">
          <mxGeometry x="209.83999999999997" y="166" width="87.42" height="30" as="geometry" />
        </mxCell>
        <mxCell id="HzJhL3RGOc5jAGBWGsxX-5" value="" style="verticalLabelPosition=bottom;html=1;verticalAlign=top;align=center;strokeColor=none;fillColor=#505050;shape=mxgraph.azure.git_repository;" vertex="1" parent="1">
          <mxGeometry x="282.79" y="186" width="50" height="50" as="geometry" />
        </mxCell>
        <mxCell id="HzJhL3RGOc5jAGBWGsxX-40" value="" style="endArrow=none;html=1;rounded=0;" edge="1" parent="1">
          <mxGeometry width="50" height="50" relative="1" as="geometry">
            <mxPoint x="340" y="212.5" as="sourcePoint" />
            <mxPoint x="520" y="212.5" as="targetPoint" />
          </mxGeometry>
        </mxCell>
        <mxCell id="HzJhL3RGOc5jAGBWGsxX-41" value="ECR repository" style="text;html=1;align=center;verticalAlign=middle;resizable=0;points=[];autosize=1;strokeColor=none;fillColor=none;" vertex="1" parent="1">
          <mxGeometry x="420" y="186" width="100" height="30" as="geometry" />
        </mxCell>
        <mxCell id="HzJhL3RGOc5jAGBWGsxX-42" value="&lt;div&gt;URL&lt;/div&gt;" style="text;html=1;align=center;verticalAlign=middle;resizable=0;points=[];autosize=1;strokeColor=none;fillColor=none;" vertex="1" parent="1">
          <mxGeometry x="10.000000000000014" y="146" width="50" height="30" as="geometry" />
        </mxCell>
      </root>
    </mxGraphModel>
  </diagram>
</mxfile>
